<?xml version="1.0" standalone="no"?>
<!DOCTYPE svg PUBLIC "-//W3C//DTD SVG 20010904//EN"
 "http://www.w3.org/TR/2001/REC-SVG-20010904/DTD/svg10.dtd">
<svg version="1.0" xmlns="http://www.w3.org/2000/svg"
 width="456.000000pt" height="456.000000pt" viewBox="0 0 456.000000 456.000000"
 preserveAspectRatio="xMidYMid meet">

<g transform="translate(0.000000,456.000000) scale(0.100000,-0.100000)"
fill="#000000" stroke="none">
<path d="M3111 3674 c-80 -21 -144 -60 -205 -124 -61 -64 -90 -114 -111 -197
-53 -205 48 -418 244 -512 73 -35 80 -36 186 -36 106 0 113 1 186 36 232 111
324 383 208 611 -30 58 -119 150 -177 181 -101 55 -224 70 -331 41z m137 -132
c2 -22 9 -32 20 -32 36 0 93 -22 122 -46 32 -27 40 -70 18 -92 -20 -20 -39
-14 -84 28 -65 60 -75 55 -72 -31 l3 -72 40 -12 c103 -31 141 -78 133 -167 -7
-71 -56 -117 -140 -133 -32 -6 -37 -11 -40 -38 -2 -21 -9 -33 -20 -35 -15 -3
-18 4 -18 32 0 28 -4 36 -17 36 -76 0 -173 72 -173 127 0 60 59 75 88 21 26
-47 49 -68 77 -68 24 0 25 2 25 73 l0 74 -42 12 c-91 27 -138 75 -138 141 0
73 53 131 136 148 27 5 40 14 42 27 9 56 35 60 40 7z"/>
<path d="M3163 3430 c-22 -9 -43 -38 -43 -60 0 -19 48 -60 70 -60 19 0 21 5
18 62 -3 64 -9 72 -45 58z"/>
<path d="M3250 3130 c0 -62 2 -70 19 -70 10 0 30 9 45 21 40 32 34 79 -15 104
-45 24 -49 20 -49 -55z"/>
<path d="M2282 3084 c-32 -22 -28 -65 14 -141 20 -35 33 -68 28 -72 -5 -5
-324 -171 -709 -370 -385 -199 -706 -369 -712 -378 -20 -26 -15 -51 13 -79 17
-18 32 -24 47 -20 12 3 339 170 727 370 l705 365 35 -67 c20 -39 46 -73 62
-82 48 -26 71 3 144 183 35 88 64 169 64 181 0 40 -31 54 -204 91 -194 41
-185 40 -214 19z"/>
<path d="M3011 2663 c-14 -3 -35 -12 -48 -20 -55 -36 -53 -6 -53 -883 l0 -810
34 -38 34 -37 231 -3 c258 -3 280 1 316 61 19 31 20 56 20 837 0 753 -1 808
-18 833 -38 59 -52 62 -282 64 -115 0 -221 -1 -234 -4z"/>
<path d="M1974 2131 c-59 -36 -59 -34 -59 -626 0 -518 1 -541 20 -572 36 -60
58 -64 316 -61 l231 3 34 37 34 38 0 557 c-1 603 1 586 -56 624 -27 17 -48 19
-259 19 -207 0 -233 -2 -261 -19z"/>
<path d="M979 1677 c-54 -36 -58 -59 -58 -392 -1 -437 -17 -418 340 -413 l231
3 34 37 34 38 0 330 c0 363 -2 375 -60 405 -23 12 -73 15 -258 15 -222 0 -230
-1 -263 -23z"/>
</g>
</svg>
